<svg width="560" height="404" viewBox="0 0 560 404" xmlns="http://www.w3.org/2000/svg" role="img">
  <style>
    text { font-family: 'Segoe UI', 'JetBrains Mono', Consolas, monospace; }
    .title { font-size: 23px; font-weight: 700; fill: #A166FF; }
    .lname { font-size: 16px; fill: #00FF00; }
    .lpct  { font-size: 16px; font-weight: 700; fill: #A166FF; }
    .foot  { font-size: 10px; fill: #00FF00; opacity: .6; }
  </style>
  <text x="28" y="44" class="title">Most Used Languages</text>
  <defs><clipPath id="barclip"><rect x="28" y="66" width="504" height="18" rx="8"/></clipPath></defs>
  <g clip-path="url(#barclip)"><rect x="28.00" y="66" width="197.47" height="18" fill="#e34c26"/><rect x="225.47" y="66" width="77.02" height="18" fill="#3178c6"/><rect x="302.49" y="66" width="60.42" height="18" fill="#663399"/><rect x="362.91" y="66" width="46.35" height="18" fill="#178600"/><rect x="409.26" y="66" width="45.06" height="18" fill="#3572A5"/><rect x="454.32" y="66" width="38.05" height="18" fill="#f1e05a"/><rect x="492.37" y="66" width="17.27" height="18" fill="#844FBA"/><rect x="509.64" y="66" width="14.56" height="18" fill="#c6538c"/><rect x="524.20" y="66" width="4.00" height="18" fill="#89e051"/><rect x="528.20" y="66" width="2.70" height="18" fill="#012456"/><rect x="530.90" y="66" width="0.33" height="18" fill="#384d54"/><rect x="531.23" y="66" width="0.26" height="18" fill="#4F5D95"/><rect x="531.49" y="66" width="0.22" height="18" fill="#A97BFF"/><rect x="531.71" y="66" width="0.15" height="18" fill="#701516"/><rect x="531.86" y="66" width="0.13" height="18" fill="#F05138"/><rect x="531.99" y="66" width="0.01" height="18" fill="#555555"/></g>
  
    <circle cx="33" cy="109" r="7" fill="#e34c26"/>
    <text x="50" y="114" class="lname">HTML</text>
    <text x="260" y="114" class="lpct" text-anchor="end">39.2%</text>
    <circle cx="285" cy="109" r="7" fill="#3178c6"/>
    <text x="302" y="114" class="lname">TypeScript</text>
    <text x="512" y="114" class="lpct" text-anchor="end">15.3%</text>
    <circle cx="33" cy="143" r="7" fill="#663399"/>
    <text x="50" y="148" class="lname">CSS</text>
    <text x="260" y="148" class="lpct" text-anchor="end">12.0%</text>
    <circle cx="285" cy="143" r="7" fill="#178600"/>
    <text x="302" y="148" class="lname">C#</text>
    <text x="512" y="148" class="lpct" text-anchor="end">9.2%</text>
    <circle cx="33" cy="177" r="7" fill="#3572A5"/>
    <text x="50" y="182" class="lname">Python</text>
    <text x="260" y="182" class="lpct" text-anchor="end">8.9%</text>
    <circle cx="285" cy="177" r="7" fill="#f1e05a"/>
    <text x="302" y="182" class="lname">JavaScript</text>
    <text x="512" y="182" class="lpct" text-anchor="end">7.5%</text>
    <circle cx="33" cy="211" r="7" fill="#844FBA"/>
    <text x="50" y="216" class="lname">HCL</text>
    <text x="260" y="216" class="lpct" text-anchor="end">3.4%</text>
    <circle cx="285" cy="211" r="7" fill="#c6538c"/>
    <text x="302" y="216" class="lname">SCSS</text>
    <text x="512" y="216" class="lpct" text-anchor="end">2.9%</text>
    <circle cx="33" cy="245" r="7" fill="#89e051"/>
    <text x="50" y="250" class="lname">Shell</text>
    <text x="260" y="250" class="lpct" text-anchor="end">0.8%</text>
    <circle cx="285" cy="245" r="7" fill="#012456"/>
    <text x="302" y="250" class="lname">PowerShell</text>
    <text x="512" y="250" class="lpct" text-anchor="end">0.5%</text>
    <circle cx="33" cy="279" r="7" fill="#384d54"/>
    <text x="50" y="284" class="lname">Dockerfile</text>
    <text x="260" y="284" class="lpct" text-anchor="end">0.1%</text>
    <circle cx="285" cy="279" r="7" fill="#4F5D95"/>
    <text x="302" y="284" class="lname">PHP</text>
    <text x="512" y="284" class="lpct" text-anchor="end">0.1%</text>
    <circle cx="33" cy="313" r="7" fill="#A97BFF"/>
    <text x="50" y="318" class="lname">Kotlin</text>
    <text x="260" y="318" class="lpct" text-anchor="end">0.0%</text>
    <circle cx="285" cy="313" r="7" fill="#701516"/>
    <text x="302" y="318" class="lname">Ruby</text>
    <text x="512" y="318" class="lpct" text-anchor="end">0.0%</text>
    <circle cx="33" cy="347" r="7" fill="#F05138"/>
    <text x="50" y="352" class="lname">Swift</text>
    <text x="260" y="352" class="lpct" text-anchor="end">0.0%</text>
    <circle cx="285" cy="347" r="7" fill="#555555"/>
    <text x="302" y="352" class="lname">C</text>
    <text x="512" y="352" class="lpct" text-anchor="end">0.0%</text>
  <text x="26" y="390" class="foot">across 30 repos you've worked in · synced 2026-06-30</text>
</svg>